<svg xmlns="http://www.w3.org/2000/svg" width="64" height="64" viewBox="0 0 64 64">
  <!-- White circular background -->
  <circle cx="32" cy="32" r="32" fill="#ffffff"/>

  <!-- Centered Ferris Wheel icon -->
  <g transform="translate(8, 8) scale(3)">
    <circle cx="8" cy="8" r="3" fill="none" stroke="#8b5cf6" stroke-width="2" />
    <circle cx="8" cy="8" r="6" fill="none" stroke="#8b5cf6" stroke-width="2" />
    <line x1="8" y1="2" x2="8" y2="0" stroke="#8b5cf6" stroke-width="2" />
    <line x1="8" y1="14" x2="8" y2="16" stroke="#8b5cf6" stroke-width="2" />
    <line x1="2" y1="8" x2="0" y2="8" stroke="#8b5cf6" stroke-width="2" />
    <line x1="14" y1="8" x2="16" y2="8" stroke="#8b5cf6" stroke-width="2" />
    <line x1="11.3" y1="4.7" x2="13" y2="3" stroke="#8b5cf6" stroke-width="2" />
    <line x1="4.7" y1="11.3" x2="3" y2="13" stroke="#8b5cf6" stroke-width="2" />
    <line x1="4.7" y1="4.7" x2="3" y2="3" stroke="#8b5cf6" stroke-width="2" />
    <line x1="11.3" y1="11.3" x2="13" y2="13" stroke="#8b5cf6" stroke-width="2" />
    <line x1="8" y1="8" x2="8" y2="8" stroke="#8b5cf6" stroke-width="2" />
    <line x1="8" y1="8" x2="8" y2="8" stroke="#8b5cf6" stroke-width="2" />
    <line x1="8" y1="8" x2="8" y2="8" stroke="#8b5cf6" stroke-width="2" />
    <line x1="8" y1="8" x2="8" y2="8" stroke="#8b5cf6" stroke-width="2" />
    <!-- Ferris wheel stand -->
    <line x1="6" y1="16" x2="6" y2="20" stroke="#8b5cf6" stroke-width="2" />
    <line x1="10" y1="16" x2="10" y2="20" stroke="#8b5cf6" stroke-width="2" />
    <line x1="4" y1="20" x2="12" y2="20" stroke="#8b5cf6" stroke-width="2" />
  </g>
</svg>
